<?xml version="1.0" encoding="UTF-8"?>
<svg id="Layer_2" xmlns="http://www.w3.org/2000/svg" version="1.1" viewBox="0 0 297.7 249.3">
  <!-- Generator: Adobe Illustrator 29.4.0, SVG Export Plug-In . SVG Version: 2.1.0 Build 152)  -->
  <defs>
    <style>
      .st0, .st1 {
        isolation: isolate;
      }

      .st2 {
        fill: #fff;
      }

      .st1 {
        font-family: Helvetica, Helvetica;
        font-size: 28.2px;
      }
    </style>
  </defs>
  <g id="Layer_1-2">
    <path d="M121.8,0c2.1,2-19.2,53.5-16.4,56.4,2,2.1,25.7-13.2,30.4-14.2,4.4-.9,12.5,1,13.4.6,2.7-1.4,3.1-6.4,4.7-6.6,1.3,0,7.4,1.7,7.8,2.2,2.6,3.8-9,41.3-8.9,48.9,11.1-5.7,31-48.3,38.7-51.5,1.8-.8,8-2.1,8.6-1.2,2.4,3,2.1,22.7,6.4,27.2,6.4-6.8,11.6-24.7,17.8-30.4,12.4-11.4,12,21.7,12.3,27.7.1,2.7-.6,3.2,2.8,2.7,11.7-1.6,10.8-13.7,14.1-22.4,4-10.5,13-25,25.9-23.1,3.1.4,5.5,3,7.6,3.2,3.7.4,7.4-3.7,10.8,2.3l-32,169.2c-3,.7-3.7-1-5.5-2.7-2.6-2.7-21.8-29.1-22-31-.1-1.4,6.6-19.8,7.4-20.9,4.2-5.5,3.6,12.6,9.1,9.1l14.2-62.8c-.3-2.8-9.3-3.7-12.3-5.5-2-1.2-5.8-6.2-6.5-6.2-1,0-11.9,11.4-15.9,13.2-14.4,6.1-12.8-2.1-15-13.2-7.6,7.5-14.1,27.3-27.2,25.6-1.8-.2-6-16.2-6.5-19.3-.4-2.4-1.2-5.8-3.6-2.7-4.4,12.2-14.6,20.6-22.2,30.5-6,3.8-15.5-4-18.5-3.1-2,.6-8.1,7.6-12.3,9.7-20.3,9.9-26.7-12-23.1-28.5.9-4.4,5.8-9.5,6.9-13.1,1.9-6.2-10.3,1.2-11.9,2.7-1.7,1.6-2.6,3.6-3.2,5.9-11.6,54-22.8,108-34.6,161.9-.6,2.8,0,9.7-4,8.8l-46-46.3,52.4-108.3c-2.4-2.2-37.1,20-42.7,20s-5.5-11.2-4.7-13.5l55.8-26.5c2.7-4,16.7-35,15.4-36.5-26.3,13.2-51.1,32.6-77.1,45.8-3.3,1.7-6.3,3.9-10.3,3.3L0,19.3l2.7-2.7L121.8,0ZM270.6,31.2c-7.3,2.4-6.5,25,1.4,23.3,6.1-1.3,15.7-28.9-1.4-23.3ZM123.7,81.8c4,4.3,16-12.8,16.4-17.4,1.2-13.8-18.8.6-18.2,10.9,0,.8,1.6,6.3,1.8,6.5h0Z"/>
    <path class="st2" d="M270.6,31.2c17.1-5.5,7.5,22,1.4,23.3-7.9,1.7-8.7-21-1.4-23.3Z"/>
    <path class="st2" d="M123.7,81.8c-.2-.2-1.8-5.7-1.8-6.5-.6-10.3,19.4-24.7,18.2-10.9-.4,4.6-12.4,21.7-16.4,17.4h0Z"/>
  </g>
  <g class="st0">
    <text class="st1" transform="translate(102.7 146.1)"><tspan x="0" y="0">EST. 1946</tspan></text>
  </g>
</svg>