<?xml version="1.0" encoding="UTF-8"?><svg id="Layer_2" xmlns="http://www.w3.org/2000/svg" viewBox="0 0 297.74 249.32"><defs><style>.cls-1{fill:#fff;}</style></defs><g id="Layer_1-2"><path d="M121.83,0c2.12,2.03-19.22,53.49-16.39,56.39,2.03,2.07,25.69-13.17,30.43-14.17,4.45-.94,12.49,1.05,13.37.58,2.68-1.43,3.1-6.43,4.69-6.57,1.28-.11,7.45,1.68,7.79,2.17,2.65,3.81-9,41.28-8.91,48.93,11.14-5.66,30.97-48.27,38.66-51.52,1.8-.76,7.97-2.06,8.65-1.2,2.4,3.03,2.15,22.7,6.42,27.24,6.41-6.79,11.61-24.72,17.8-30.4,12.44-11.4,12.01,21.67,12.26,27.72.11,2.65-.65,3.2,2.75,2.72,11.73-1.63,10.75-13.72,14.06-22.37,4.03-10.55,12.95-25.01,25.9-23.14,3.06.44,5.47,2.97,7.63,3.18,3.66.35,7.38-3.66,10.79,2.31l-31.99,169.16c-2.99.66-3.71-.96-5.45-2.74-2.6-2.67-21.79-29.08-21.97-30.96-.13-1.35,6.6-19.81,7.4-20.87,4.18-5.51,3.59,12.6,9.07,9.09l14.24-62.84c-.26-2.75-9.31-3.74-12.29-5.49-1.99-1.16-5.82-6.24-6.48-6.24-1.03,0-11.94,11.45-15.95,13.16-14.42,6.12-12.78-2.11-15.01-13.17-7.61,7.53-14.12,27.32-27.16,25.59-1.82-.24-6.01-16.2-6.54-19.27-.42-2.39-1.24-5.85-3.62-2.68-4.4,12.15-14.64,20.6-22.24,30.54-6.01,3.82-15.47-3.96-18.46-3.1-2,.58-8.07,7.59-12.34,9.67-20.35,9.93-26.65-12.04-23.13-28.55.94-4.41,5.78-9.49,6.89-13.14,1.88-6.19-10.31,1.15-11.91,2.67-1.73,1.64-2.61,3.64-3.22,5.88-11.6,53.96-22.75,108.02-34.63,161.91-.61,2.78-.02,9.71-3.95,8.76l-46.05-46.35,52.41-108.27c-2.4-2.19-37.06,19.99-42.74,20.05-1.18.01-5.55-11.15-4.74-13.54l55.77-26.45c2.73-4.03,16.7-34.98,15.39-36.47-26.27,13.21-51.13,32.55-77.09,45.81-3.34,1.71-6.33,3.9-10.34,3.31L0,19.33l2.73-2.73L121.83,0ZM270.57,31.16c-7.31,2.37-6.49,24.99,1.39,23.33,6.1-1.29,15.7-28.87-1.39-23.33ZM123.68,81.85c4.02,4.35,16-12.76,16.4-17.38,1.19-13.83-18.76.56-18.21,10.87.04.79,1.58,6.26,1.81,6.5Z"/><path class="cls-1" d="M270.57,31.16c17.09-5.54,7.49,22.04,1.39,23.33-7.88,1.66-8.7-20.96-1.39-23.33Z"/><path class="cls-1" d="M123.68,81.85c-.23-.25-1.77-5.71-1.81-6.5-.55-10.32,19.4-24.7,18.21-10.87-.4,4.62-12.37,21.72-16.4,17.38Z"/></g></svg>
